<svg width="36" height="36" viewBox="0 0 36 36" fill="none" xmlns="http://www.w3.org/2000/svg">
<path d="M17.9497 16.1753C16.8684 16.1753 15.9888 17.055 15.9888 18.1362C15.9888 19.2175 16.8685 20.0972 17.9497 20.0972C19.0311 20.0972 19.9107 19.2174 19.9107 18.1362C19.9107 17.055 19.0311 16.1753 17.9497 16.1753ZM17.9497 19.0291C17.4574 19.0291 17.0569 18.6285 17.0569 18.1362C17.0569 17.644 17.4575 17.2434 17.9497 17.2434C18.442 17.2434 18.8426 17.644 18.8426 18.1362C18.8426 18.6285 18.442 19.0291 17.9497 19.0291Z" fill="#E6A56B"/>
<path d="M17.9498 13.542C15.4165 13.542 13.3555 15.603 13.3555 18.1364C13.3555 20.6697 15.4165 22.7307 17.9498 22.7307C20.4832 22.7307 22.5442 20.6697 22.5442 18.1364C22.5442 15.603 20.4832 13.542 17.9498 13.542ZM17.9498 21.6625C16.0054 21.6625 14.4236 20.0807 14.4236 18.1363C14.4236 16.1919 16.0055 14.61 17.9498 14.61C19.8942 14.61 21.4761 16.1919 21.4761 18.1363C21.4761 20.0806 19.8942 21.6625 17.9498 21.6625Z" fill="#E6A56B"/>
<path d="M17.9497 10.9517C13.9879 10.9517 10.7646 14.1749 10.7646 18.1368C10.7646 22.0986 13.9879 25.3218 17.9497 25.3218C21.9116 25.3218 25.1348 22.0985 25.1348 18.1368C25.1348 14.1749 21.9116 10.9517 17.9497 10.9517ZM17.9497 24.2537C14.5769 24.2537 11.8328 21.5096 11.8328 18.1368C11.8328 14.7639 14.5769 12.0199 17.9497 12.0199C21.3226 12.0199 24.0666 14.764 24.0666 18.1368C24.0666 21.5096 21.3226 24.2537 17.9497 24.2537Z" fill="#E6A56B"/>
<path d="M17.9494 8.38086C12.5702 8.38086 8.19385 12.7572 8.19385 18.1364C8.19385 23.5156 12.5702 27.8919 17.9494 27.8919C23.3286 27.8919 27.7049 23.5156 27.7049 18.1364C27.7049 12.7572 23.3286 8.38086 17.9494 8.38086ZM17.9494 26.8238C13.1591 26.8238 9.26196 22.9266 9.26196 18.1364C9.26196 13.3461 13.1591 9.44898 17.9494 9.44898C22.7397 9.44898 26.6367 13.3461 26.6367 18.1364C26.6367 22.9266 22.7396 26.8238 17.9494 26.8238Z" fill="#E6A56B"/>
<path d="M17.9501 5.76904C11.1306 5.76904 5.58252 11.317 5.58252 18.1367C5.58252 24.9563 11.1305 30.5042 17.9501 30.5042C24.7696 30.5042 30.3177 24.9562 30.3177 18.1366C30.3177 11.317 24.7696 5.76904 17.9501 5.76904ZM17.9501 29.436C11.7195 29.436 6.65071 24.3671 6.65071 18.1366C6.65071 11.9061 11.7195 6.83723 17.9501 6.83723C24.1806 6.83723 29.2495 11.9061 29.2495 18.1367C29.2495 24.3672 24.1807 29.436 17.9501 29.436Z" fill="#E6A56B"/>
<path d="M17.9498 3.49072C9.8742 3.49072 3.3042 10.0607 3.3042 18.1364C3.3042 26.2119 9.8742 32.782 17.9498 32.782C26.0254 32.782 32.5954 26.212 32.5954 18.1364C32.5955 10.0607 26.0254 3.49072 17.9498 3.49072ZM17.9498 31.7138C10.4631 31.7138 4.37239 25.623 4.37239 18.1364C4.37239 10.6498 10.4632 4.55884 17.9498 4.55884C25.4364 4.55884 31.5272 10.6497 31.5272 18.1363C31.5272 25.6229 25.4365 31.7138 17.9498 31.7138Z" fill="#E6A56B"/>
<path d="M35.5842 18.9018C35.4574 18.6326 35.2998 18.2976 35.2998 18.1366C35.2998 17.1169 35.2106 16.0947 35.0346 15.0985C34.9896 14.8435 35.0396 14.6254 35.0976 14.3727C35.1772 14.0256 35.2764 13.5936 35.1038 13.0629C35.0256 12.8225 34.947 12.5656 34.8637 12.2936C34.5638 11.3136 34.2239 10.2031 33.7445 9.37118C33.5043 8.95416 33.0448 8.64696 32.6003 8.34989C32.3021 8.15048 31.9936 7.94433 31.8647 7.7715C31.7312 7.5927 31.5784 7.1448 31.4434 6.74965C31.2307 6.12668 31.0298 5.53823 30.7042 5.19476C30.1687 4.63008 29.5902 4.09655 28.9847 3.60893C28.4369 3.16779 27.8337 3.13762 27.3015 3.11091C26.9111 3.09136 26.5739 3.07441 26.2768 2.91157C25.4212 2.44259 24.5202 2.04398 23.5991 1.72687C23.3364 1.63645 22.9861 1.38804 22.6473 1.14785C22.1375 0.786375 21.6102 0.412523 21.0612 0.307758C19.9908 0.10357 18.8906 0 17.7913 0C16.9112 0 16.153 0.354727 15.4198 0.697781C14.9564 0.914625 14.5186 1.11945 14.0809 1.21901C13.7605 1.29192 13.3504 1.26956 12.9163 1.24594C12.2992 1.21233 11.6611 1.17738 11.0982 1.40505C10.2959 1.72941 9.51092 2.11802 8.76483 2.56015C8.28052 2.84716 7.98296 3.3312 7.69517 3.79934C7.49611 4.12305 7.30817 4.42877 7.09674 4.59851C6.79777 4.83848 6.39256 5.00456 5.96351 5.18034C5.34181 5.43516 4.6988 5.69862 4.23523 6.23855C3.62387 6.9506 3.06671 7.71729 2.57902 8.51723C2.17536 9.17958 2.03902 10.0401 1.90726 10.8722C1.82225 11.4088 1.74195 11.9155 1.59887 12.3176C1.32479 13.0876 1.1038 13.8848 0.941936 14.6866C0.81917 15.295 0.728256 15.9178 0.671655 16.5376C0.62335 17.0656 0.598952 17.6036 0.598952 18.1365C0.598952 18.5264 0.469577 18.9929 0.332467 19.4868C0.139249 20.1833 -0.060509 20.9036 0.06303 21.5762C0.18003 22.2135 0.334717 22.8509 0.522803 23.4705C0.709413 24.0852 0.932936 24.696 1.18733 25.2859C1.40501 25.7908 1.87632 26.1143 2.33215 26.4271C2.6288 26.6307 2.93551 26.8412 3.053 27.0373C3.32511 27.4918 3.62183 27.9394 3.93507 28.3676C4.28909 28.8518 4.67279 29.3231 5.0754 29.7686C5.24 29.9507 5.429 30.2972 5.61174 30.6324C5.88237 31.1289 6.16229 31.6422 6.52102 31.953C7.12409 32.4755 7.76872 32.9606 8.4369 33.3947C8.88268 33.6844 9.35054 33.6826 9.72608 33.6808C9.99439 33.6802 10.226 33.6788 10.4177 33.7713C10.7235 33.9188 11.0686 34.2255 11.4339 34.5502C11.9655 35.0227 12.5153 35.5112 13.1444 35.692C13.7187 35.8571 14.2247 35.8875 14.714 35.917C14.9767 35.9328 15.2483 35.9491 15.5375 35.9861C15.6115 35.9956 15.6856 35.9999 15.7596 35.9999C16.1865 35.9999 16.6126 35.8553 17.0267 35.7147C17.3567 35.6027 17.698 35.4869 17.9493 35.4869C18.371 35.4869 18.832 35.6022 19.3201 35.7244C20.0213 35.8999 20.7464 36.0817 21.4628 35.9398C22.2094 35.7924 22.9379 35.4997 23.6425 35.2166C23.8632 35.1279 24.0717 35.0441 24.2773 34.9662C24.7606 34.7831 25.1326 34.3884 25.4609 34.0402C25.6968 33.79 25.9195 33.5538 26.1342 33.4387C26.9408 33.0064 27.7198 32.5055 28.4496 31.95C28.642 31.8034 28.9942 31.7002 29.3348 31.6005C29.8474 31.4505 30.3774 31.2952 30.7519 30.9244C31.4327 30.25 32.0617 29.5147 32.6215 28.7388C32.9153 28.3315 32.9557 27.8057 32.9912 27.3419C33.0151 27.0297 33.0399 26.707 33.137 26.5316C33.561 25.7662 33.9294 24.9623 34.2319 24.1425C34.3174 23.9107 34.5489 23.6829 34.794 23.4416C35.1492 23.092 35.5517 22.6957 35.6747 22.1214C35.8056 21.5099 35.9045 20.8836 35.9685 20.2597C36.0139 19.815 35.7954 19.3507 35.5842 18.9018ZM34.9058 20.1509C34.8458 20.7364 34.7531 21.3242 34.6303 21.8978C34.5743 22.1591 34.3171 22.4123 34.0447 22.6804C33.7416 22.9787 33.398 23.3169 33.2299 23.7727C32.9461 24.5418 32.6005 25.2959 32.2026 26.0141C31.9926 26.3932 31.9588 26.834 31.9261 27.2603C31.9001 27.5995 31.8732 27.9502 31.7552 28.1138C31.2297 28.8422 30.6391 29.5324 30 30.1655C29.8177 30.3462 29.4195 30.4628 29.0344 30.5755C28.6007 30.7026 28.1522 30.8339 27.8024 31.1001C27.1174 31.6215 26.3864 32.0917 25.6295 32.4973C25.2616 32.6945 24.9678 33.0062 24.6836 33.3075C24.4222 33.5848 24.1519 33.8714 23.8987 33.9673C23.6832 34.049 23.46 34.1387 23.2441 34.2255C22.5854 34.4901 21.9041 34.7638 21.2558 34.8919C20.7737 34.9867 20.1936 34.8419 19.5795 34.6882C19.05 34.5557 18.5026 34.4187 17.9493 34.4187C17.5217 34.4187 17.0955 34.5634 16.6834 34.7033C16.3125 34.8292 15.9292 34.9596 15.6731 34.9266C15.3483 34.8851 15.0585 34.8675 14.7782 34.8507C14.3073 34.8223 13.9005 34.7979 13.4393 34.6653C13.0434 34.5516 12.5859 34.1449 12.1434 33.7517C11.7395 33.3927 11.3217 33.0215 10.8818 32.8092C10.5031 32.6265 10.1244 32.6124 9.80806 32.6124C9.77867 32.6124 9.74984 32.6126 9.72157 32.6127C9.39617 32.6133 9.18854 32.6092 9.0188 32.499C8.39161 32.0915 7.7865 31.6361 7.22042 31.1456C7.00772 30.9613 6.7643 30.5149 6.54957 30.121C6.32724 29.7132 6.11729 29.328 5.86775 29.0521C5.48975 28.6339 5.12961 28.1915 4.79724 27.7369C4.50326 27.3349 4.22469 26.9149 3.96945 26.4885C3.73215 26.0922 3.32771 25.8146 2.93656 25.5462C2.60574 25.3192 2.26367 25.0845 2.16812 24.8628C1.92955 24.3094 1.71987 23.7365 1.54487 23.16C1.36838 22.5788 1.22333 21.981 1.11357 21.3831C1.03447 20.9521 1.2009 20.3522 1.3617 19.7722C1.51182 19.2311 1.66707 18.6716 1.66707 18.1363C1.66707 17.6356 1.69006 17.1304 1.73534 16.6346C1.78857 16.0529 1.87386 15.4685 1.98903 14.8977C2.14076 14.1455 2.34805 13.3979 2.60511 12.6757C2.78145 12.1803 2.87328 11.6002 2.96215 11.0393C3.07775 10.3096 3.19721 9.55512 3.49104 9.07312C3.94871 8.32226 4.47169 7.60268 5.04558 6.93436C5.34167 6.58948 5.8404 6.38515 6.36844 6.16873C6.84896 5.97178 7.34572 5.76816 7.7652 5.43143C8.12105 5.14589 8.36707 4.74567 8.60501 4.35874C8.82481 4.0012 9.05213 3.6315 9.3094 3.47899C10.0094 3.06422 10.7459 2.69951 11.4984 2.39527C11.8406 2.25696 12.3579 2.28502 12.858 2.31244C13.3465 2.33909 13.8517 2.36679 14.318 2.26048C14.8674 2.13539 15.3784 1.8964 15.8724 1.66521C16.5289 1.35816 17.1488 1.06812 17.7914 1.06812C18.8237 1.06812 19.8566 1.16529 20.8613 1.3571C21.1822 1.41827 21.6325 1.73756 22.0298 2.0193C22.4301 2.30309 22.844 2.59657 23.2517 2.73698C24.1158 3.03441 24.9609 3.4084 25.7636 3.84834C26.2757 4.12896 26.7924 4.15491 27.2483 4.17776C27.7375 4.20223 28.0507 4.2281 28.315 4.44094C28.8835 4.89867 29.4266 5.39958 29.9292 5.92966C30.0945 6.1039 30.2899 6.67659 30.4327 7.09474C30.6087 7.60999 30.7748 8.09669 31.0085 8.41015C31.2473 8.73021 31.6334 8.98833 32.0068 9.23787C32.3332 9.45605 32.7033 9.70341 32.8191 9.90429C33.238 10.6313 33.5591 11.6804 33.8423 12.606C33.927 12.8826 34.0069 13.1438 34.0881 13.3931C34.1692 13.6426 34.122 13.8486 34.0565 14.1336C33.9868 14.4375 33.9 14.8157 33.9827 15.284C34.1479 16.2191 34.2317 17.1788 34.2317 18.1364C34.2317 18.5361 34.4279 18.9532 34.6178 19.3565C34.7385 19.6134 34.9211 20.0014 34.9058 20.1509Z" fill="#E6A56B"/>
</svg>
